<?xml version="1.0" standalone="no"?>
<!DOCTYPE svg PUBLIC "-//W3C//DTD SVG 20010904//EN"
 "http://www.w3.org/TR/2001/REC-SVG-20010904/DTD/svg10.dtd">
<svg version="1.0" xmlns="http://www.w3.org/2000/svg"
 width="1182.000000pt" height="1230.000000pt" viewBox="0 0 1182.000000 1230.000000"
 preserveAspectRatio="xMidYMid meet">

<g transform="translate(0.000000,1230.000000) scale(0.100000,-0.100000)"
fill="#000000" stroke="none">
<path d="M9880 8464 c-307 -36 -528 -128 -685 -283 -107 -107 -164 -226 -172
-366 -16 -252 132 -452 467 -633 41 -22 185 -88 320 -145 135 -57 279 -121
320 -142 279 -140 398 -304 369 -510 -26 -187 -133 -306 -334 -372 -67 -22
-104 -27 -230 -30 -184 -6 -281 13 -423 84 -168 83 -341 277 -410 460 -30 80
-26 78 -118 60 l-61 -12 38 -185 c46 -232 85 -388 100 -406 16 -20 206 -79
331 -103 444 -85 885 -31 1179 145 91 54 208 163 257 238 105 162 119 371 36
543 -27 56 -56 96 -113 152 -129 130 -284 217 -641 361 -368 148 -477 207
-583 319 -74 77 -107 148 -114 245 -15 194 102 351 312 422 65 21 104 27 210
31 160 6 246 -10 361 -67 132 -65 243 -198 305 -365 12 -33 25 -63 28 -67 6
-7 131 8 139 17 3 3 -16 134 -64 425 -9 52 -19 98 -22 101 -9 9 -183 46 -302
65 -92 14 -428 27 -500 18z"/>
<path d="M4700 8405 c0 -51 2 -55 28 -61 177 -38 264 -100 325 -232 l22 -47 0
-820 c-1 -988 -7 -1091 -76 -1184 -41 -55 -161 -101 -266 -101 l-33 0 0 -57 0
-58 363 2 c199 1 413 2 475 2 l112 1 0 55 0 55 -44 0 c-56 0 -178 25 -214 44
-43 23 -90 78 -107 126 -9 24 -20 94 -26 155 -13 133 -24 1635 -12 1635 4 -1
76 -85 159 -188 84 -103 463 -569 843 -1037 l692 -850 75 -3 74 -3 0 28 c0 15
2 483 4 1038 4 1016 9 1189 41 1286 16 48 60 97 110 122 29 15 119 34 180 39
29 3 30 5 33 56 l3 52 -476 0 -476 0 3 -52 3 -53 75 -6 c159 -13 240 -53 282
-139 46 -94 50 -165 55 -1000 5 -768 5 -775 -15 -757 -11 10 -392 465 -848
1012 l-829 995 -267 0 -268 0 0 -55z"/>
<path d="M7592 8408 l3 -53 45 -2 c80 -5 200 -24 243 -39 57 -20 102 -67 118
-122 20 -69 20 -2019 0 -2075 -20 -58 -65 -103 -119 -121 -57 -19 -168 -36
-239 -36 l-53 0 0 -55 0 -55 268 0 c495 -1 857 -1 930 0 l72 0 0 54 0 53 -102
7 c-184 12 -258 42 -298 121 l-25 50 0 1020 0 1020 23 48 c40 79 118 111 310
125 l87 7 3 53 3 52 -636 0 -636 0 3 -52z"/>
<path d="M7395 4962 c-33 -7 -98 -19 -145 -25 -76 -11 -85 -15 -88 -35 -3 -18
1 -22 25 -22 16 0 38 -6 49 -14 18 -14 19 -33 24 -432 l5 -418 60 -18 c97 -30
194 -40 269 -28 173 28 291 131 332 292 67 261 -179 494 -408 386 l-58 -27 -2
177 -3 177 -60 -13z m180 -383 c101 -28 151 -133 143 -298 -6 -113 -32 -185
-85 -231 -55 -49 -129 -37 -162 27 -7 14 -11 105 -11 262 l0 240 23 4 c39 8
51 7 92 -4z"/>
<path d="M3290 4945 c0 -20 5 -25 26 -25 41 0 92 -29 115 -66 20 -34 21 -42
17 -387 -3 -233 -8 -361 -16 -379 -13 -31 -58 -58 -97 -58 -20 0 -25 -5 -25
-25 l0 -25 190 0 190 0 0 24 c0 21 -6 24 -52 29 -86 11 -97 29 -109 178 -5 68
-8 212 -7 319 l3 195 300 -377 300 -377 43 0 42 -1 0 368 c0 434 8 527 45 560
16 13 39 22 61 22 30 0 34 3 34 25 l0 25 -190 0 -190 0 0 -25 c0 -22 4 -25 34
-25 46 0 95 -19 106 -41 6 -10 15 -63 20 -116 12 -119 13 -453 2 -453 -4 0
-131 149 -282 330 l-274 330 -143 0 -143 0 0 -25z"/>
<path d="M5164 4578 c-30 -112 -30 -113 -10 -121 15 -6 24 -4 31 8 75 126 94
137 211 133 l74 -3 -91 -160 c-50 -88 -126 -219 -170 -291 -43 -73 -79 -139
-79 -148 0 -14 30 -16 279 -16 l279 0 10 28 c40 99 61 165 56 173 -13 22 -42
5 -74 -43 -50 -76 -84 -92 -202 -96 -54 -3 -98 0 -98 5 0 4 76 141 169 303 93
162 167 298 164 303 -2 4 -104 7 -227 7 -180 0 -226 3 -242 15 -41 31 -49 21
-80 -97z"/>
<path d="M4640 4656 c-116 -41 -208 -96 -230 -136 -29 -55 89 -120 134 -74 9
8 21 36 27 61 16 61 52 103 91 103 66 0 98 -48 98 -149 0 -58 0 -59 -37 -76
-21 -10 -84 -35 -140 -55 -120 -44 -147 -60 -173 -103 -47 -76 -3 -190 90
-237 62 -31 100 -32 158 -5 30 14 66 34 82 45 l28 20 17 -26 c9 -14 37 -35 61
-45 l44 -20 90 42 c76 35 90 46 88 63 -3 18 -9 20 -39 18 -63 -6 -69 13 -69
221 0 102 -5 198 -12 224 -15 63 -71 117 -139 137 -69 21 -92 20 -169 -8z
m108 -568 c-18 -11 -76 -10 -99 2 -45 24 -65 123 -34 167 9 12 44 38 78 57
l62 35 3 -126 c2 -94 -1 -128 -10 -135z"/>
<path d="M6090 4661 c-121 -38 -250 -122 -250 -161 0 -26 43 -60 84 -67 46 -7
69 12 86 74 19 65 54 103 96 103 61 0 94 -52 94 -149 l0 -58 -57 -25 c-32 -14
-99 -40 -149 -58 -125 -44 -164 -83 -164 -166 0 -83 72 -164 162 -184 46 -9
56 -8 102 14 28 13 64 33 81 43 l29 19 37 -37 c53 -53 77 -54 178 -7 47 21 87
41 89 43 2 2 1 12 -2 22 -5 15 -14 18 -39 15 -60 -7 -64 7 -69 238 -4 226 -9
244 -72 302 -32 30 -110 58 -155 57 -14 0 -51 -8 -81 -18z m98 -573 c-7 -4
-30 -8 -51 -8 -59 0 -97 43 -97 109 0 61 21 88 100 130 l55 30 3 -126 c2 -94
-1 -128 -10 -135z"/>
<path d="M6825 4670 c-20 -7 -131 -31 -217 -45 -29 -4 -38 -11 -38 -25 0 -13
7 -20 19 -20 10 0 29 -9 42 -19 23 -18 24 -25 27 -195 5 -201 -3 -299 -25
-321 -8 -8 -28 -15 -44 -15 -24 0 -29 -4 -29 -25 l0 -25 210 0 210 0 0 25 c0
22 -4 25 -38 25 -21 0 -48 7 -60 16 -21 15 -22 20 -22 213 0 185 1 200 21 225
26 33 78 35 121 5 28 -21 32 -21 63 -6 74 35 92 119 37 168 -64 57 -135 26
-216 -96 l-26 -40 0 83 c0 45 -3 82 -7 81 -5 0 -17 -4 -28 -9z"/>
<path d="M8335 4669 c-105 -25 -275 -130 -275 -170 0 -17 47 -58 76 -65 48
-12 75 6 94 63 22 68 45 101 75 109 74 19 117 -35 113 -141 l-3 -69 -91 -36
c-50 -19 -115 -43 -145 -54 -29 -10 -68 -33 -85 -50 -95 -95 -19 -260 133
-289 40 -8 83 6 150 49 52 33 53 33 65 13 17 -27 69 -58 101 -61 15 -1 63 15
107 37 66 32 80 43 78 60 -3 17 -9 19 -39 17 -63 -6 -69 13 -69 221 0 102 -5
198 -12 224 -15 63 -71 117 -139 137 -58 18 -76 18 -134 5z m73 -581 c-18 -11
-76 -10 -99 2 -45 24 -65 123 -34 167 9 12 44 38 78 57 l62 35 3 -126 c2 -94
-1 -128 -10 -135z"/>
<path d="M9773 4666 c-276 -90 -371 -445 -168 -624 57 -50 129 -76 216 -76 83
0 172 40 239 108 40 42 43 48 29 61 -14 14 -21 13 -67 -11 -61 -31 -159 -37
-208 -11 -64 33 -111 107 -121 187 l-6 48 44 6 c24 2 113 9 197 14 99 7 158
14 168 23 12 10 15 25 11 61 -10 84 -64 160 -141 200 -50 26 -138 32 -193 14z
m100 -64 c43 -47 64 -163 31 -176 -9 -3 -60 -6 -114 -6 l-97 0 8 45 c11 57 42
119 71 139 30 21 81 20 101 -2z"/>
<path d="M8710 4642 c0 -13 12 -22 39 -31 50 -15 64 -36 139 -226 102 -256
152 -400 152 -433 0 -64 -43 -124 -128 -178 -58 -37 -67 -52 -58 -88 12 -49
117 -86 145 -53 6 8 29 67 52 133 79 231 306 783 335 815 9 10 32 23 50 29 23
8 34 18 34 31 0 18 -8 19 -135 19 -128 0 -135 -1 -135 -20 0 -13 9 -22 28 -26
38 -9 52 -23 52 -49 0 -25 -107 -345 -119 -358 -10 -10 -123 317 -125 362 -1
31 3 35 32 43 22 6 32 14 32 28 0 19 -8 20 -195 20 -183 0 -195 -1 -195 -18z"/>
<path d="M10150 4640 c0 -14 11 -22 40 -30 53 -14 64 -35 196 -367 l109 -273
31 0 c31 0 32 1 99 168 117 288 174 415 196 438 12 13 37 28 55 34 23 8 34 18
34 31 0 18 -8 19 -135 19 -128 0 -135 -1 -135 -20 0 -13 10 -22 32 -28 57 -15
58 -28 5 -185 -64 -190 -76 -216 -87 -197 -18 32 -120 313 -122 338 -2 22 3
30 30 41 19 9 32 22 32 33 0 17 -13 18 -190 18 -182 0 -190 -1 -190 -20z"/>
<path d="M6237 3490 c-16 -5 -76 -16 -133 -26 -86 -14 -104 -20 -104 -34 0
-12 11 -20 35 -24 19 -4 39 -15 45 -26 6 -12 10 -172 10 -432 0 -459 1 -451
-65 -464 -25 -4 -35 -11 -35 -25 0 -18 11 -19 200 -19 186 0 200 1 200 18 0
13 -13 21 -44 30 -32 8 -45 17 -50 34 -3 13 -6 238 -6 501 0 375 -3 477 -12
476 -7 0 -26 -5 -41 -9z"/>
<path d="M6665 3485 c-33 -8 -95 -19 -137 -26 -63 -9 -78 -15 -78 -29 0 -12
10 -20 32 -24 61 -12 58 10 58 -457 0 -473 3 -452 -65 -465 -25 -4 -35 -11
-35 -25 0 -18 11 -19 200 -19 187 0 200 1 200 18 0 13 -11 21 -37 28 -24 6
-42 18 -50 34 -10 19 -13 139 -13 503 0 262 -3 477 -7 476 -5 -1 -35 -7 -68
-14z"/>
<path d="M10630 3485 c-30 -7 -92 -19 -137 -25 -71 -10 -83 -15 -83 -31 0 -13
7 -19 24 -19 13 0 33 -8 45 -17 21 -18 21 -20 19 -453 l-3 -435 -42 -15 c-29
-10 -43 -20 -43 -32 0 -17 15 -18 200 -18 190 0 200 1 200 19 0 15 -10 21 -39
26 -22 4 -46 14 -53 22 -10 13 -14 121 -16 505 -2 268 -6 488 -10 487 -4 0
-32 -7 -62 -14z"/>
<path d="M3400 3402 c0 -13 13 -23 47 -33 32 -9 52 -22 60 -39 16 -31 19 -754
3 -794 -10 -26 -32 -40 -82 -50 -19 -5 -28 -13 -28 -26 0 -19 7 -20 225 -20
218 0 225 1 225 20 0 13 -9 21 -27 26 -51 10 -73 24 -83 50 -16 40 -13 763 3
794 8 17 28 30 60 39 34 10 47 20 47 33 0 17 -14 18 -225 18 -211 0 -225 -1
-225 -18z"/>
<path d="M4987 3283 l-87 -56 0 -53 c0 -53 -1 -54 -28 -54 -29 0 -89 -50 -75
-63 3 -4 28 -7 55 -7 l48 0 0 -256 c0 -245 1 -258 22 -295 26 -47 86 -79 146
-79 37 0 185 50 205 69 4 4 5 15 1 24 -5 13 -15 15 -49 10 -61 -8 -92 2 -110
37 -12 23 -15 73 -15 260 l0 230 75 0 c61 0 76 3 84 18 6 11 6 24 0 35 -8 14
-24 17 -84 17 l-75 0 0 104 c0 76 -3 105 -13 109 -7 3 -52 -20 -100 -50z"/>
<path d="M8482 3280 l-92 -59 0 -51 c0 -46 -2 -50 -23 -50 -25 0 -82 -52 -70
-63 3 -4 25 -7 49 -7 l42 0 4 -252 c3 -232 5 -256 24 -293 25 -49 89 -85 151
-85 38 0 186 49 206 69 4 4 5 15 1 24 -5 13 -15 15 -49 10 -118 -16 -128 6
-133 299 l-4 227 83 3 84 3 0 30 0 30 -82 3 -83 3 0 104 c0 57 -4 106 -8 109
-4 3 -49 -22 -100 -54z"/>
<path d="M4155 3114 c-27 -7 -85 -19 -127 -25 -65 -10 -78 -16 -78 -31 0 -11
7 -18 18 -18 10 0 28 -7 40 -16 22 -15 22 -18 22 -263 0 -187 -3 -251 -12
-259 -7 -6 -30 -13 -50 -17 -28 -5 -38 -12 -38 -26 0 -18 10 -19 185 -19 171
0 185 1 185 18 0 10 -12 22 -28 28 -39 15 -42 36 -42 283 l0 207 39 22 c79 44
160 19 181 -56 13 -47 13 -392 0 -427 -6 -17 -20 -27 -40 -31 -21 -5 -30 -12
-30 -25 0 -18 11 -19 185 -19 174 0 185 1 185 19 0 13 -10 20 -32 25 -58 12
-58 10 -58 240 0 161 -4 225 -15 264 -48 161 -202 189 -364 68 -19 -14 -39
-26 -43 -26 -4 0 -8 23 -8 50 0 56 1 55 -75 34z"/>
<path d="M5586 3116 c-21 -8 -63 -31 -93 -52 -226 -155 -219 -501 12 -614 74
-36 198 -35 277 2 31 14 78 47 103 72 39 40 44 49 35 66 -11 20 -12 20 -58 -7
-40 -24 -58 -28 -124 -28 -69 0 -80 3 -119 30 -51 36 -87 101 -95 171 l-6 50
191 13 c106 6 199 15 207 18 38 14 25 117 -24 188 -15 22 -50 53 -76 70 -41
25 -61 30 -120 32 -44 2 -86 -2 -110 -11z m106 -47 c43 -23 80 -173 46 -184
-7 -2 -57 -5 -110 -8 l-98 -4 0 25 c0 48 25 106 61 144 37 39 64 47 101 27z"/>
<path d="M7167 3110 c-91 -35 -166 -107 -211 -200 -28 -60 -31 -73 -31 -165 0
-84 4 -108 23 -147 32 -64 85 -116 151 -147 47 -22 70 -26 141 -26 94 0 136
16 218 82 52 43 68 69 52 88 -10 12 -19 10 -59 -13 -39 -23 -57 -27 -122 -27
-65 0 -81 4 -115 26 -48 32 -90 106 -99 175 l-7 50 193 13 c106 7 201 17 211
22 44 24 3 168 -65 225 -77 65 -184 82 -280 44z m115 -41 c43 -23 80 -173 46
-184 -7 -2 -57 -5 -112 -8 l-98 -4 6 43 c7 56 38 116 72 143 30 23 55 26 86
10z"/>
<path d="M7954 3116 c-130 -41 -254 -147 -293 -251 -60 -160 8 -339 158 -412
48 -24 68 -28 141 -28 101 0 143 18 227 98 50 47 52 51 37 68 -16 18 -18 18
-43 0 -63 -44 -150 -53 -216 -22 -88 40 -129 123 -130 256 0 106 21 171 66
210 51 42 111 31 191 -36 26 -21 53 -39 61 -39 17 0 53 38 61 67 24 77 -131
129 -260 89z"/>
<path d="M9927 3106 c-92 -33 -200 -99 -215 -130 -9 -20 -8 -29 9 -50 10 -13
35 -30 55 -36 50 -17 77 4 99 75 18 56 61 105 91 105 29 0 71 -29 83 -57 6
-15 12 -57 14 -93 l2 -65 -101 -40 c-56 -22 -124 -48 -151 -57 -63 -22 -98
-55 -113 -105 -34 -112 89 -247 209 -230 22 3 67 22 101 42 l61 37 20 -26 c24
-30 69 -56 98 -56 10 0 57 18 104 41 70 33 84 44 80 60 -4 14 -14 19 -43 19
-62 0 -64 8 -70 239 -4 184 -7 210 -26 246 -49 95 -176 128 -307 81z m143
-430 l0 -124 -30 -12 c-94 -39 -185 97 -117 175 23 27 113 84 135 84 9 1 12
-30 12 -123z"/>
<path d="M8928 3107 c-94 -9 -108 -12 -108 -28 0 -12 10 -21 28 -25 52 -13 52
-12 52 -230 0 -112 5 -226 11 -255 34 -160 229 -199 376 -75 l32 27 3 -48 c4
-57 -9 -55 170 -22 119 22 128 26 128 47 0 18 -5 22 -34 22 -64 0 -66 9 -66
324 l0 279 -62 -6 c-35 -4 -100 -10 -145 -13 -71 -6 -83 -9 -83 -25 0 -13 12
-21 39 -29 21 -5 42 -17 45 -26 3 -9 6 -114 6 -235 l0 -219 -24 -15 c-61 -40
-144 -26 -174 29 -15 27 -17 65 -17 284 l0 252 -35 -2 c-19 -1 -83 -6 -142
-11z"/>
<path d="M8740 1932 c-69 -13 -135 -26 -147 -28 -32 -6 -29 -32 5 -40 48 -10
52 -13 63 -40 6 -18 9 -175 7 -442 -3 -396 -4 -414 -22 -428 -11 -8 -32 -14
-48 -14 -23 0 -28 -4 -28 -25 l0 -25 200 0 200 0 0 25 c0 21 -5 25 -29 25 -16
0 -38 8 -50 18 -21 17 -21 22 -24 507 l-2 490 -125 -23z"/>
<path d="M6205 1928 c-55 -11 -110 -21 -123 -24 -34 -7 -24 -38 13 -42 17 -2
36 -8 43 -14 9 -8 12 -109 12 -443 0 -406 -1 -433 -18 -448 -10 -10 -33 -17
-50 -17 -27 0 -32 -4 -32 -25 l0 -25 185 0 185 0 0 25 c0 18 -5 25 -19 25 -42
0 -46 21 -49 265 l-3 232 28 18 c15 10 51 21 80 23 45 4 55 1 76 -21 39 -38
47 -87 47 -282 0 -199 -7 -228 -53 -233 -21 -3 -27 -9 -27 -28 l0 -24 186 0
185 0 -3 23 c-2 15 -11 23 -29 25 -54 6 -57 18 -61 262 -3 203 -5 229 -24 270
-64 138 -222 156 -371 42 l-33 -24 0 231 0 231 -22 -1 c-13 -1 -68 -10 -123
-21z"/>
<path d="M4903 1890 c-156 -33 -253 -139 -253 -275 1 -122 63 -198 247 -303
114 -64 187 -129 199 -177 3 -14 4 -49 2 -76 -4 -42 -12 -58 -41 -87 -30 -30
-44 -36 -92 -40 -79 -6 -133 17 -193 83 -27 29 -59 78 -73 109 -22 51 -26 56
-49 50 -14 -3 -26 -7 -28 -8 -3 -3 25 -167 36 -211 7 -26 16 -33 72 -52 284
-96 563 39 563 272 0 119 -69 201 -257 303 -135 73 -179 111 -196 169 -18 60
-6 110 40 155 38 38 56 44 130 38 71 -5 126 -56 167 -155 11 -29 23 -43 31
-40 8 3 19 5 26 5 11 0 10 14 0 73 -7 39 -13 86 -13 104 -1 30 -5 33 -53 48
-64 19 -207 27 -265 15z"/>
<path d="M5766 1579 c-68 -16 -163 -68 -220 -120 -101 -93 -143 -217 -112
-337 27 -108 81 -173 180 -218 127 -58 256 -30 362 77 44 44 47 50 33 65 -14
14 -19 13 -53 -7 -91 -54 -192 -44 -262 27 -52 51 -74 117 -74 219 0 127 42
213 112 230 34 9 99 -20 156 -68 35 -30 47 -35 62 -27 49 26 65 93 31 124 -24
22 -104 46 -145 45 -17 -1 -48 -5 -70 -10z"/>
<path d="M7220 1575 c-167 -47 -263 -176 -264 -355 0 -71 4 -94 26 -141 51
-111 137 -177 262 -200 111 -20 244 20 321 96 100 100 130 278 70 411 -69 154
-248 235 -415 189z m150 -75 c47 -50 62 -110 68 -264 5 -159 -6 -231 -45 -276
-19 -24 -33 -30 -63 -30 -99 0 -154 121 -153 340 0 94 4 125 22 172 26 67 51
88 104 88 30 0 45 -7 67 -30z"/>
<path d="M8067 1580 c-171 -43 -278 -181 -278 -359 0 -121 48 -220 136 -281
68 -47 120 -62 215 -63 103 0 176 25 242 82 114 100 152 297 84 435 -34 69
-119 148 -183 170 -59 21 -165 28 -216 16z m138 -84 c49 -53 69 -135 70 -291
0 -201 -31 -275 -115 -275 -90 0 -140 102 -148 301 -5 142 9 215 54 268 21 25
33 31 66 31 33 0 47 -6 73 -34z"/>
<path d="M9238 1577 c-123 -35 -196 -143 -168 -247 15 -57 76 -115 178 -169
103 -55 132 -87 132 -145 0 -58 -30 -86 -92 -86 -63 0 -120 44 -166 128 -24
45 -39 62 -54 62 -20 0 -21 -4 -15 -77 9 -111 13 -119 60 -138 139 -56 299
-32 384 57 39 41 53 76 53 135 0 93 -42 140 -203 224 -109 58 -133 87 -123
144 9 47 40 70 91 70 51 0 90 -31 134 -106 22 -39 29 -45 47 -38 20 7 21 12
13 56 -17 90 -25 108 -53 121 -40 20 -162 24 -218 9z"/>
</g>
</svg>
