<svg width="157" height="66" viewBox="0 0 157 66" fill="none" xmlns="http://www.w3.org/2000/svg">
<path d="M24.6087 60.0722C24.4961 59.3778 24.4085 58.8774 24.371 58.4333C23.8451 58.262 23.2974 58.1672 22.7446 58.1518C20.9868 58.1518 20.0172 59.1339 20.0172 60.3537C20.0172 61.4734 20.943 62.1303 22.094 62.7308C22.9885 63.2125 23.4764 63.6691 23.4764 64.3322C23.4864 64.4895 23.463 64.6472 23.4075 64.7948C23.352 64.9423 23.2658 65.0764 23.1546 65.1882C23.0435 65.2999 22.9098 65.3868 22.7626 65.4431C22.6153 65.4993 22.4578 65.5237 22.3004 65.5145C21.1494 65.5145 20.5113 64.3009 20.2549 63.5815L19.8232 63.7129C19.8873 64.3476 20.0066 64.9756 20.1798 65.5896C20.4255 65.6935 20.6785 65.7792 20.9367 65.846C21.3113 65.9379 21.6957 65.9842 22.0815 65.9837C23.858 65.9837 24.9778 64.9765 24.9778 63.7004C24.9778 62.5431 24.1145 61.8988 22.8884 61.292C21.9063 60.7853 21.4559 60.41 21.4559 59.7407C21.4517 59.5924 21.4775 59.4448 21.5317 59.3068C21.5859 59.1687 21.6675 59.0431 21.7714 58.9373C21.8754 58.8316 21.9998 58.748 22.1369 58.6914C22.274 58.6349 22.4211 58.6066 22.5694 58.6084C23.539 58.6084 23.9081 59.4279 24.177 60.1535L24.6087 60.0847V60.0722ZM30.2386 64.4511C29.8886 64.7462 29.4454 64.9079 28.9875 64.9077C28.4496 64.9077 27.4299 64.4385 27.4299 62.8434C27.4299 61.6861 27.849 61.0606 28.3995 61.0606C28.8477 61.1185 29.2582 61.3415 29.5505 61.6861C29.62 61.7639 29.7159 61.8129 29.8195 61.8237C29.9696 61.7865 30.1031 61.7006 30.1993 61.5796C30.2955 61.4585 30.3489 61.309 30.3513 61.1544C30.3513 61.0168 30.3137 60.8854 30.1136 60.7478C29.8019 60.5644 29.4422 60.4794 29.0814 60.5038C28.3859 60.5511 27.718 60.7939 27.1547 61.2044C26.7803 61.4544 26.4713 61.7904 26.2536 62.1845C26.0359 62.5785 25.9159 63.0189 25.9036 63.4689C25.892 63.8033 25.9498 64.1365 26.0734 64.4474C26.1971 64.7583 26.3838 65.0403 26.6219 65.2754C26.8599 65.5105 27.1441 65.6937 27.4566 65.8134C27.769 65.9332 28.1028 65.9869 28.437 65.9711C28.8485 65.9393 29.2474 65.8147 29.6038 65.6067C29.9603 65.3987 30.265 65.1126 30.4951 64.7701L30.2512 64.4886L30.2386 64.4511ZM36.8632 65.796V65.4332C36.2377 65.3518 36.2001 65.3268 36.2001 64.5887V62.3805C36.2001 61.1732 35.6559 60.5038 34.58 60.5038C33.9756 60.5455 33.4077 60.8082 32.9848 61.242V57.7076C32.249 57.8869 31.5033 58.0226 30.7516 58.1142V58.4395C31.3771 58.5146 31.4272 58.5208 31.4272 59.2027V64.6137C31.4272 65.3519 31.3521 65.4019 30.664 65.4582V65.821H33.5103V65.4582C33.0474 65.3894 32.9848 65.3393 32.9848 64.6512V61.6861C33.0946 61.5789 33.2248 61.4949 33.3678 61.439C33.5107 61.3831 33.6634 61.3565 33.8168 61.3608C34.2735 61.3608 34.6488 61.6486 34.6488 62.5056V64.6512C34.6488 65.3206 34.5925 65.3769 34.0232 65.4582V65.821L36.8632 65.796ZM40.2787 60.4788C39.9051 60.4709 39.5337 60.5394 39.1876 60.6803C38.8414 60.8211 38.5277 61.0313 38.2658 61.2979C38.0039 61.5645 37.7993 61.8819 37.6646 62.2305C37.5299 62.5791 37.4679 62.9516 37.4825 63.3251C37.4775 63.6803 37.546 64.0327 37.6836 64.3602C37.8213 64.6877 38.0252 64.9832 38.2824 65.2281C38.5397 65.4731 38.8448 65.6621 39.1787 65.7836C39.5125 65.905 39.8679 65.9561 40.2224 65.9336C40.5931 65.947 40.9624 65.882 41.3061 65.7428C41.6499 65.6036 41.9604 65.3934 42.2173 65.1259C42.4742 64.8583 42.6717 64.5396 42.7969 64.1904C42.922 63.8413 42.972 63.4697 42.9436 63.0999C42.9497 62.7503 42.8847 62.403 42.7523 62.0794C42.62 61.7557 42.4232 61.4623 42.174 61.2171C41.9247 60.9719 41.6281 60.78 41.3023 60.6531C40.9764 60.5262 40.6282 60.4669 40.2787 60.4788ZM40.0973 60.9229C40.8104 60.9229 41.2233 61.8738 41.2233 63.4251C41.2233 65.1454 40.7729 65.4707 40.3413 65.4707C39.6094 65.4707 39.2028 64.3635 39.2028 62.8934C39.2028 61.5485 39.6219 60.9042 40.0973 60.9042V60.9229ZM46.5968 60.5038C46.2231 60.4959 45.8518 60.5644 45.5057 60.7053C45.1595 60.8462 44.8458 61.0564 44.5839 61.323C44.322 61.5896 44.1173 61.9069 43.9826 62.2556C43.8479 62.6042 43.786 62.9766 43.8006 63.3501C43.7956 63.7053 43.864 64.0577 44.0017 64.3852C44.1393 64.7127 44.3432 65.0082 44.6005 65.2531C44.8578 65.4981 45.1629 65.6872 45.4968 65.8086C45.8306 65.93 46.1859 65.9811 46.5405 65.9586C46.9111 65.972 47.2804 65.907 47.6242 65.7678C47.968 65.6286 48.2785 65.4184 48.5354 65.1509C48.7923 64.8833 48.9898 64.5646 49.1149 64.2154C49.2401 63.8663 49.2901 63.4947 49.2616 63.1249C49.2678 62.7753 49.2027 62.4281 49.0704 62.1044C48.9381 61.7807 48.7413 61.4874 48.492 61.2422C48.2427 60.997 47.9461 60.8051 47.6203 60.6781C47.2945 60.5512 46.9463 60.4919 46.5968 60.5038ZM46.4154 60.948C47.1285 60.948 47.5414 61.8988 47.5414 63.4502C47.5414 65.1705 47.091 65.4957 46.6593 65.4957C45.9274 65.4957 45.5209 64.3885 45.5209 62.9184C45.5209 61.5735 45.9462 60.9292 46.4154 60.9292V60.948ZM52.8523 65.821V65.4582C52.1517 65.3894 52.0891 65.3393 52.0891 64.5574V57.6763C51.3432 57.8671 50.5842 58.003 49.8184 58.083V58.3957C50.5065 58.4833 50.5315 58.5271 50.5315 59.2277V64.5261C50.5315 65.2768 50.4815 65.3456 49.7809 65.4269V65.7897L52.8523 65.821ZM57.0184 61.9926C56.9544 61.5705 56.8646 61.1527 56.7495 60.7415C56.3805 60.5908 55.9843 60.5184 55.5859 60.5288C54.2598 60.5288 53.5342 61.292 53.5342 62.1803C53.5342 63.0686 54.4537 63.5628 55.0793 63.8756C55.7048 64.1883 55.9738 64.5011 55.9738 64.8889C55.9794 64.978 55.9658 65.0672 55.9341 65.1506C55.9023 65.234 55.8531 65.3097 55.7897 65.3725C55.7263 65.4353 55.6502 65.4838 55.5665 65.5148C55.4828 65.5458 55.3934 65.5584 55.3044 65.552C54.5913 65.552 54.0534 64.7951 53.7656 64.057L53.3903 64.1258C53.4163 64.618 53.4812 65.1075 53.5842 65.5896C54.0586 65.8582 54.5966 65.9943 55.1418 65.9837C56.1489 65.9837 57.2875 65.4394 57.2875 64.2759C57.2875 63.3751 56.5806 62.956 55.6423 62.5181C55.0542 62.2616 54.7727 61.9927 54.7727 61.6173C54.7709 61.4467 54.8348 61.2819 54.9513 61.1573C55.0678 61.0326 55.2279 60.9576 55.3983 60.948C55.905 60.948 56.2803 61.3608 56.6494 62.1428L57.0184 62.0177V61.9926Z" fill="#808285"/>
<path d="M4.77283 54.1109V53.723C3.91582 53.6542 3.82824 53.5353 3.82824 52.6095V48.1118C3.82824 47.136 3.90331 47.0421 4.77283 46.9733V46.5917H1.25098V46.9733C2.10798 47.0421 2.19556 47.136 2.19556 48.1118V52.6095C2.19556 53.5479 2.08921 53.6542 1.25098 53.723V54.1109H4.77283ZM11.5225 54.1109V53.748C10.9282 53.673 10.8594 53.6542 10.8594 52.916V50.5828C10.8594 49.5068 10.3277 48.7937 9.33308 48.7937C8.98174 48.7972 8.64038 48.9109 8.35722 49.1189C8.107 49.2691 7.90056 49.438 7.64408 49.6006V48.7812C6.93462 48.9886 6.20827 49.133 5.47344 49.2128V49.5193C6.04895 49.6194 6.09899 49.6694 6.09899 50.37V52.9035C6.09899 53.6542 6.03644 53.673 5.32332 53.748V54.1109H8.19457V53.748C7.71915 53.6855 7.65661 53.6417 7.65661 52.9348V50.0197C7.89627 49.806 8.20506 49.6861 8.52613 49.682C8.97027 49.682 9.31433 49.9509 9.31433 50.7579V52.9035C9.31433 53.6542 9.25175 53.6855 8.74506 53.748V54.1109H11.5225ZM15.6074 53.7105L15.4822 53.3227C15.2865 53.4136 15.0725 53.4585 14.8567 53.454C14.5377 53.454 14.1811 53.2914 14.1811 52.4093V49.4693H15.3196C15.5073 49.4004 15.5198 49.0627 15.3947 48.9313H14.1936V47.3049L14.0122 47.2235L12.636 48.1118V48.9313H12.1918L11.8478 49.3379L11.9103 49.4693H12.636V52.7972C12.6015 52.9938 12.6145 53.1958 12.674 53.3863C12.7335 53.5768 12.8376 53.7503 12.9778 53.8924C13.118 54.0344 13.2902 54.1409 13.4799 54.2028C13.6697 54.2647 13.8715 54.2804 14.0685 54.2485C14.248 54.2362 14.4239 54.1916 14.5877 54.1171L15.5948 53.7105H15.6074ZM20.299 52.7409C19.9322 53.0559 19.4624 53.2251 18.9791 53.2163C18.1408 53.2163 17.4089 52.5532 17.3839 51.2959C18.5474 51.2521 20.055 51.1457 20.2302 51.1082C20.5242 51.0644 20.5742 50.933 20.5742 50.6766C20.5579 50.171 20.3447 49.6918 19.9801 49.3412C19.6155 48.9906 19.1283 48.7964 18.6225 48.7999C17.9315 48.8304 17.2781 49.1235 16.7959 49.6194C16.5068 49.893 16.2766 50.2228 16.1196 50.5885C15.9625 50.9543 15.8819 51.3482 15.8826 51.7463C15.8684 52.0786 15.9235 52.4103 16.0442 52.7203C16.1649 53.0303 16.3487 53.3119 16.584 53.5471C16.8192 53.7823 17.1008 53.9661 17.4107 54.0869C17.7207 54.2076 18.0524 54.2626 18.3848 54.2485C18.8128 54.2223 19.2286 54.0953 19.5982 53.8778C19.9678 53.6604 20.2808 53.3587 20.5117 52.9974L20.2865 52.7096L20.299 52.7409ZM18.4223 49.2441C18.879 49.2441 19.1354 49.8696 19.1354 50.4576C19.1354 50.6641 19.0729 50.7266 18.854 50.7266H17.459C17.5403 49.8383 17.9719 49.2128 18.4223 49.2128V49.2441ZM24.0523 54.1109V53.748C23.3517 53.673 23.2891 53.6292 23.2891 52.8472V45.9662C22.5426 46.1559 21.7839 46.2939 21.0184 46.379V46.6918C21.7065 46.7731 21.7315 46.8232 21.7315 47.5238V52.8222C21.7315 53.5666 21.6814 53.6417 20.9808 53.723V54.0858L24.0523 54.1109ZM27.4866 54.1109V53.748C26.7859 53.673 26.7234 53.6292 26.7234 52.8472V45.9662C25.9769 46.1559 25.2181 46.2939 24.4526 46.379V46.6918C25.1407 46.7731 25.1658 46.8232 25.1658 47.5238V52.8222C25.1658 53.5666 25.1157 53.6417 24.4151 53.723V54.0858L27.4866 54.1109ZM32.4159 52.7409C32.052 53.0566 31.5839 53.2259 31.1022 53.2163C30.2577 53.2163 29.5321 52.5532 29.5071 51.2959C30.6706 51.2521 32.1719 51.1457 32.3533 51.1082C32.6473 51.0644 32.6974 50.933 32.6974 50.6766C32.6811 50.171 32.4679 49.6918 32.1033 49.3412C31.7387 48.9906 31.2515 48.7964 30.7457 48.7999C30.0543 48.8291 29.4006 49.1224 28.9191 49.6194C28.6298 49.8952 28.4002 50.2273 28.2442 50.5952C28.0882 50.9632 28.0092 51.3592 28.012 51.7588C27.9978 52.0912 28.0529 52.4228 28.1736 52.7328C28.2944 53.0428 28.4782 53.3243 28.7134 53.5596C28.9487 53.7948 29.2302 53.9786 29.5402 54.0994C29.8502 54.2201 30.1818 54.2752 30.5142 54.261C30.9433 54.2358 31.3603 54.1092 31.7311 53.8917C32.1019 53.6743 32.4159 53.3721 32.6473 53.0099L32.4159 52.7221V52.7409ZM30.5392 49.2441C31.0022 49.2441 31.2586 49.8696 31.2586 50.4576C31.2586 50.6641 31.1898 50.7266 30.9771 50.7266H29.5821C29.6572 49.8383 30.0951 49.2128 30.5392 49.2128V49.2441ZM37.8394 52.7597C37.4908 53.0572 37.0467 53.2193 36.5883 53.2163C36.0503 53.2163 35.0307 52.7534 35.0307 51.1582C35.0307 49.9947 35.4498 49.3754 36.0003 49.3754C36.4481 49.4345 36.8582 49.6573 37.1513 50.001C37.2189 50.082 37.3154 50.1336 37.4203 50.1449C37.5704 50.1076 37.7039 50.0218 37.8 49.9007C37.8962 49.7796 37.9497 49.6301 37.952 49.4755C37.952 49.3316 37.9145 49.2065 37.7143 49.0689C37.4135 48.8731 37.0596 48.7748 36.7009 48.7874C36.0027 48.8304 35.3316 49.0736 34.768 49.488C34.3933 49.7362 34.084 50.071 33.8662 50.4641C33.6484 50.8572 33.5286 51.297 33.5169 51.7463C33.5062 52.0804 33.5647 52.4132 33.6886 52.7237C33.8126 53.0341 33.9993 53.3157 34.2372 53.5506C34.475 53.7855 34.7589 53.9688 35.0709 54.0889C35.3829 54.209 35.7164 54.2633 36.0503 54.2485C36.4626 54.2168 36.8621 54.0916 37.2187 53.8824C37.5754 53.6732 37.8796 53.3855 38.1084 53.0412L37.8644 52.7597H37.8394ZM42.2183 53.7105L42.0931 53.3227C41.8974 53.4136 41.6834 53.4585 41.4676 53.454C41.1486 53.454 40.792 53.2914 40.792 52.4093V49.4693H41.9117C42.1057 49.4004 42.1182 49.0627 41.9931 48.9313H40.792V47.3049L40.6106 47.2235L39.2344 48.1118V48.9313H38.784L38.44 49.3379L38.5088 49.4693H39.2344V52.7972C39.199 52.9956 39.2121 53.1996 39.2725 53.3918C39.3329 53.5841 39.4389 53.7589 39.5814 53.9014C39.7239 54.0439 39.8987 54.1499 40.091 54.2103C40.2833 54.2707 40.4873 54.2838 40.6857 54.2485C40.8672 54.2364 41.0452 54.1919 41.2111 54.1171L42.2183 53.7105ZM48.5676 53.4791H48.2611C47.8732 53.4415 47.8107 53.3164 47.8107 52.7284V48.875L46.7535 49.0064C46.3469 49.0064 45.909 49.0752 45.5525 49.0877V49.4317L45.8965 49.488C46.203 49.5568 46.2531 49.6381 46.2531 50.1636V53.0724C46.149 53.1777 46.0239 53.26 45.8859 53.3139C45.748 53.3678 45.6003 53.3921 45.4523 53.3852C45.0395 53.3852 44.6454 53.1287 44.6454 52.3656V50.6203C44.6454 49.9509 44.6454 49.3692 44.6829 48.85C44.3764 48.8875 44.0073 48.9438 43.6132 48.9813C43.2191 49.0189 42.8188 49.0502 42.4622 49.0627V49.4067L42.7312 49.463C43.0377 49.5318 43.0878 49.5944 43.0878 50.0885V52.6533C43.0642 52.8645 43.0874 53.0783 43.1559 53.2795C43.2244 53.4807 43.3364 53.6643 43.4839 53.8172C43.6315 53.9701 43.811 54.0886 44.0096 54.1642C44.2082 54.2399 44.421 54.2708 44.6329 54.2547C45.0152 54.2509 45.3885 54.1381 45.7088 53.9294C45.9051 53.803 46.0876 53.6562 46.2531 53.4915V54.1734L46.3594 54.2547C46.6909 54.1734 47.0475 54.0921 47.4166 54.0233C47.7857 53.9545 48.1673 53.8794 48.5676 53.8356V53.4853V53.4791ZM54.3226 53.6167L54.2101 53.2538C54.085 53.2962 53.9542 53.3194 53.8222 53.3227C53.597 53.3227 53.4156 53.16 53.4156 52.6408V50.5452C53.4417 50.2912 53.4051 50.0347 53.3091 49.7981C53.2132 49.5614 53.0607 49.3519 52.8651 49.1877C52.5061 48.916 52.064 48.7768 51.614 48.7937C50.8848 48.9326 50.1898 49.2131 49.5685 49.6194C49.287 49.807 49.1494 49.9759 49.1494 50.1636C49.1494 50.4889 49.6185 50.7204 49.9501 50.7204C50.0603 50.7278 50.1694 50.6932 50.2552 50.6236C50.3411 50.554 50.3974 50.4545 50.413 50.345C50.4585 50.0635 50.5676 49.7961 50.732 49.5631C50.784 49.4912 50.8528 49.4331 50.9324 49.3938C51.012 49.3546 51.1 49.3354 51.1887 49.3379C51.5577 49.3379 51.883 49.6945 51.883 50.37V50.8517C51.2708 51.1747 50.6273 51.4346 49.9626 51.6274C49.6989 51.6809 49.4632 51.827 49.2979 52.0393C49.1327 52.2516 49.0489 52.516 49.0618 52.7847C49.0844 53.1941 49.2682 53.5779 49.573 53.8522C49.8778 54.1264 50.2787 54.2689 50.6882 54.2485C51.1433 54.1268 51.5689 53.914 51.9393 53.6229C52.0003 53.7834 52.1069 53.9225 52.2459 54.0233C52.4411 54.1886 52.6908 54.2756 52.9465 54.2673L54.2851 53.6417L54.3226 53.6167ZM51.9018 53.1975C51.7768 53.3054 51.6164 53.3634 51.4514 53.3602C51.2614 53.3367 51.0844 53.2511 50.948 53.1167C50.8116 52.9823 50.7233 52.8067 50.6969 52.6171C50.6706 52.4274 50.7075 52.2343 50.8021 52.0678C50.8967 51.9013 51.0435 51.7707 51.2199 51.6962L51.9018 51.3209V53.1975ZM57.5317 54.1109V53.748C56.8311 53.673 56.7686 53.6292 56.7686 52.8472V45.9662C56.0221 46.1559 55.2633 46.2939 54.4978 46.379V46.6918C55.1859 46.7731 55.211 46.8232 55.211 47.5238V52.8222C55.211 53.5666 55.1609 53.6417 54.4603 53.723V54.0858L57.5317 54.1109Z" fill="#808285"/>
<path d="M8.00078 34.8564H5.12952V35.2317C5.94899 35.2693 6.18669 35.4444 6.2555 35.8573C6.33955 36.5064 6.37718 37.1608 6.3681 37.8153V39.8671H6.31804L2.18316 34.8564H0V35.2317C0.191076 35.2231 0.381475 35.2601 0.555489 35.3394C0.729503 35.4188 0.882135 35.5385 1.00087 35.6884C1.20104 35.9449 1.20105 36.1576 1.20105 36.9395V39.3854C1.20891 40.0357 1.17129 40.6858 1.08845 41.3309C1.03841 41.775 0.794451 41.9564 0.118856 42.0065V42.3818H3.02764V42.0065C2.14562 41.9752 1.93921 41.7625 1.87665 41.3184C1.80608 40.6765 1.77264 40.0311 1.77654 39.3854V36.8207H1.81407L6.34931 42.5006H6.97486V37.8278C6.96634 37.1691 7.004 36.5107 7.0875 35.8573C7.13754 35.4382 7.36899 35.2317 8.01956 35.2317V34.8564H8.00078ZM13.5307 41.8876L13.4118 41.5186C13.2903 41.567 13.161 41.5924 13.0302 41.5936C12.7988 41.5936 12.6236 41.4247 12.6236 40.9117V38.8162C12.648 38.5623 12.6107 38.3063 12.5149 38.0699C12.419 37.8336 12.2675 37.6239 12.0731 37.4587C11.7146 37.1852 11.2727 37.0438 10.822 37.0584C10.0934 37.1965 9.39997 37.4794 8.78271 37.8903C8.50122 38.078 8.35734 38.2407 8.35734 38.4283C8.35734 38.7599 8.83275 38.9913 9.16429 38.9913C9.27387 38.9986 9.38211 38.9638 9.46695 38.8941C9.55179 38.8244 9.60688 38.7249 9.62097 38.616C9.67176 38.336 9.78043 38.0697 9.94001 37.8341C9.99219 37.7608 10.0619 37.7018 10.1427 37.6625C10.2236 37.6231 10.3131 37.6047 10.4029 37.6089C10.772 37.6089 11.091 37.9591 11.091 38.641V39.1227C10.4807 39.4434 9.83932 39.7012 9.17681 39.8921C8.91271 39.948 8.67684 40.0954 8.51087 40.3083C8.3449 40.5212 8.25949 40.7859 8.26976 41.0556C8.29398 41.4656 8.47913 41.8494 8.78489 42.1235C9.09065 42.3976 9.49233 42.5399 9.90247 42.5194C10.3578 42.3984 10.7836 42.1856 11.1536 41.8939C11.2193 42.0499 11.3251 42.1858 11.4601 42.288C11.6544 42.4556 11.9042 42.5448 12.1607 42.5382L13.5056 41.9127L13.5307 41.8876ZM11.1035 41.4622C10.9834 41.5748 10.8239 41.6355 10.6594 41.6311C10.4425 41.6167 10.2401 41.5172 10.096 41.3545C9.95197 41.1917 9.87794 40.9787 9.88995 40.7616C9.88476 40.5895 9.93392 40.42 10.0305 40.2774C10.1271 40.1348 10.2661 40.0262 10.4279 39.9672C10.6594 39.8358 10.8846 39.7044 11.1035 39.5918V41.4685V41.4622ZM18.3411 40.7053L18.1472 41.0431C17.9991 41.345 17.7583 41.5916 17.4601 41.7469C17.1618 41.9022 16.8218 41.9581 16.4895 41.9064H15.7889C16.6959 40.28 17.4716 38.935 18.3912 37.3524L18.2911 37.2022H15.3197C14.8881 37.2022 14.7505 37.1334 14.6566 36.952H14.3376C14.2193 37.5462 14.0668 38.1331 13.881 38.7098L14.2751 38.8412L14.4565 38.4971C14.5575 38.223 14.7488 37.9913 14.9989 37.8401C15.2489 37.6889 15.5429 37.6272 15.8327 37.6651H16.4582C15.6262 39.154 14.7755 40.6553 13.8059 42.2254L13.9185 42.3756H18.1597L18.7039 40.8555L18.3224 40.7053H18.3411ZM24.434 41.8876L24.3151 41.5186C24.1935 41.5663 24.0642 41.5917 23.9336 41.5936C23.7021 41.5936 23.5269 41.4247 23.5269 40.9117V38.8162C23.5514 38.5623 23.514 38.3063 23.4182 38.0699C23.3224 37.8336 23.1708 37.6239 22.9765 37.4587C22.618 37.1852 22.176 37.0438 21.7254 37.0584C20.9968 37.1965 20.3033 37.4794 19.6861 37.8903C19.4046 38.078 19.2607 38.2407 19.2607 38.4283C19.2607 38.7599 19.7361 38.9913 20.0677 38.9913C20.1772 38.9986 20.2855 38.9638 20.3703 38.8941C20.4552 38.8244 20.5102 38.7249 20.5243 38.616C20.5723 38.3352 20.6812 38.0683 20.8433 37.8341C20.8955 37.7608 20.9653 37.7018 21.0461 37.6625C21.127 37.6231 21.2164 37.6047 21.3062 37.6089C21.6753 37.6089 21.9943 37.9591 21.9943 38.641V39.1227C21.384 39.4434 20.7427 39.7012 20.0802 39.8921C19.816 39.948 19.5802 40.0954 19.4142 40.3083C19.2482 40.5212 19.1628 40.7859 19.1731 41.0556C19.1973 41.4656 19.3825 41.8494 19.6882 42.1235C19.994 42.3976 20.3957 42.5399 20.8058 42.5194C21.2612 42.3984 21.6869 42.1856 22.0569 41.8939C22.1205 42.0512 22.2266 42.1876 22.3634 42.288C22.5571 42.4566 22.8073 42.546 23.064 42.5382L24.409 41.9127L24.434 41.8876ZM22.0069 41.4622C21.8868 41.5748 21.7272 41.6355 21.5627 41.6311C21.3458 41.6167 21.1434 41.5172 20.9994 41.3545C20.8553 41.1917 20.7813 40.9787 20.7933 40.7616C20.7881 40.5895 20.8373 40.42 20.9339 40.2774C21.0304 40.1348 21.1695 40.0262 21.3313 39.9672C21.5627 39.8358 21.7879 39.7044 22.0069 39.5918V41.4685V41.4622ZM27.0113 38.2657V37.0146C26.2998 37.2349 25.5687 37.3857 24.8281 37.465V37.7777C25.3911 37.9091 25.4536 37.9654 25.4536 38.5847V41.162C25.4536 41.8563 25.3786 41.9252 24.728 41.9815V42.3442H27.9433V41.9815C27.0738 41.9252 27.0113 41.8751 27.0113 41.162V38.8412C27.2114 38.397 27.4179 38.3282 27.6368 38.3282C27.8339 38.3406 28.0202 38.4226 28.1623 38.5597C28.2141 38.5999 28.2762 38.6247 28.3414 38.6313C28.4067 38.6379 28.4725 38.6261 28.5313 38.5972C28.7089 38.5364 28.8639 38.4231 28.9756 38.2723C29.0873 38.1215 29.1505 37.9403 29.1569 37.7527C29.1561 37.655 29.1358 37.5584 29.0971 37.4687C29.0584 37.3789 29.0021 37.2979 28.9315 37.2302C28.861 37.1626 28.7776 37.1098 28.6863 37.0749C28.595 37.04 28.4976 37.0237 28.4 37.0271C27.8933 37.0271 27.4554 37.5213 27.0488 38.2344L27.0113 38.2657ZM31.5778 37.4837V34.2621C30.83 34.4447 30.0717 34.5806 29.307 34.6688V35.0191C29.9889 35.0691 30.0264 35.1254 30.0264 35.8073V42.0628C30.6773 42.3339 31.3733 42.4803 32.0782 42.4944C32.4821 42.5166 32.8863 42.4559 33.2659 42.3161C33.6455 42.1762 33.9924 41.9602 34.2854 41.6813C34.5784 41.4024 34.8112 41.0665 34.9695 40.6942C35.1278 40.322 35.2083 39.9213 35.206 39.5168C35.2169 39.1905 35.1618 38.8654 35.0439 38.5609C34.926 38.2565 34.7477 37.9791 34.5198 37.7454C34.2919 37.5116 34.0191 37.3264 33.7178 37.2008C33.4164 37.0752 33.0928 37.0119 32.7663 37.0146C32.4925 37.0306 32.2265 37.1121 31.9907 37.2523L31.5652 37.44L31.5778 37.4837ZM31.5778 37.8778C31.7353 37.8259 31.8999 37.7985 32.0657 37.7965C32.8477 37.7965 33.5357 38.4221 33.5357 39.8483C33.5357 41.2746 32.9477 42.0753 32.2846 42.0628C32.1404 42.0517 32.002 42.0008 31.8849 41.9157C31.7679 41.8307 31.6767 41.7149 31.6216 41.5811C31.5679 41.4438 31.5444 41.2966 31.5528 41.1495V37.8778H31.5778ZM41.2863 41.8876L41.1675 41.5186C41.0458 41.5663 40.9166 41.5917 40.7859 41.5936C40.5544 41.5936 40.3793 41.4247 40.3793 40.9117V38.8162C40.4037 38.5623 40.3664 38.3063 40.2705 38.0699C40.1747 37.8336 40.0231 37.6239 39.8288 37.4587C39.4703 37.1852 39.0284 37.0438 38.5777 37.0584C37.8488 37.1953 37.1551 37.4783 36.5384 37.8903C36.2569 38.078 36.113 38.2407 36.113 38.4283C36.113 38.7599 36.5885 38.9913 36.92 38.9913C37.0296 38.9986 37.1378 38.9638 37.2226 38.8941C37.3075 38.8244 37.3626 38.7249 37.3766 38.616C37.4246 38.3352 37.5335 38.0683 37.6957 37.8341C37.7475 37.7604 37.8171 37.7011 37.898 37.6617C37.979 37.6223 38.0687 37.6041 38.1586 37.6089C38.5276 37.6089 38.8467 37.9591 38.8467 38.641V39.1227C38.2363 39.4434 37.595 39.7012 36.9325 39.8921C36.6684 39.948 36.4325 40.0954 36.2665 40.3083C36.1006 40.5212 36.0152 40.7859 36.0254 41.0556C36.0497 41.4656 36.2348 41.8494 36.5406 42.1235C36.8463 42.3976 37.248 42.5399 37.6581 42.5194C38.1135 42.3984 38.5392 42.1856 38.9092 41.8939C38.9728 42.0512 39.079 42.1876 39.2158 42.288C39.4094 42.4566 39.6597 42.546 39.9164 42.5382L41.2613 41.9127L41.2863 41.8876ZM38.8592 41.4622C38.799 41.5187 38.7282 41.5627 38.6509 41.5917C38.5736 41.6207 38.4913 41.6341 38.4088 41.6311C38.193 41.6151 37.9922 41.515 37.8495 41.3524C37.7067 41.1898 37.6335 40.9776 37.6456 40.7616C37.6385 40.5891 37.6869 40.4188 37.7837 40.2758C37.8806 40.1328 38.0207 40.0246 38.1836 39.9672C38.4088 39.8358 38.6402 39.7044 38.8592 39.5918V41.4685V41.4622ZM46.86 37.2022H44.7206V37.5525C45.3461 37.6339 45.4337 37.759 45.3086 38.1781C45.0646 38.9475 44.7581 39.8733 44.4391 40.7304L43.5696 38.1656C43.4257 37.7339 43.4257 37.6026 44.0387 37.54V37.1897H41.0674V37.54C41.5928 37.5963 41.6929 37.7402 41.9494 38.2532C42.2059 38.7661 42.8314 40.4051 43.4695 42.1754C43.5442 42.3398 43.5744 42.521 43.5571 42.7008C43.4853 42.9005 43.3952 43.0932 43.2881 43.2763C43.0677 43.5929 42.7618 43.8402 42.406 43.9894C42.1496 44.1333 42.062 44.2522 42.062 44.4399C42.062 44.8027 42.575 45.128 42.9315 45.128C43.0394 45.1392 43.1476 45.1094 43.2346 45.0445C43.3215 44.9796 43.3808 44.8843 43.4007 44.7776C43.5696 44.2147 43.8135 43.464 44.5642 41.5811C45.2398 39.9296 45.5838 39.0789 45.8904 38.3845C46.1969 37.6902 46.2782 37.6339 46.86 37.54V37.1897V37.2022ZM51.3952 41.0056C51.0335 41.3256 50.5644 41.4976 50.0816 41.4872C49.2371 41.4872 48.5114 40.8179 48.4802 39.5668C49.6437 39.5168 51.1513 39.4104 51.3327 39.3791C51.6267 39.3291 51.6767 39.204 51.6767 38.9475C51.6588 38.4425 51.4452 37.9642 51.0809 37.614C50.7166 37.2637 50.2303 37.0689 49.725 37.0709C49.0334 37.0988 48.3791 37.3923 47.8984 37.8903C47.6084 38.1669 47.3783 38.5 47.2223 38.8691C47.0662 39.2381 46.9876 39.6353 46.9913 40.036C46.9772 40.3684 47.0322 40.7 47.153 41.01C47.2737 41.32 47.4575 41.6016 47.6927 41.8368C47.928 42.072 48.2095 42.2558 48.5195 42.3766C48.8295 42.4973 49.1612 42.5524 49.4935 42.5382C49.9195 42.515 50.3342 42.3926 50.7045 42.1808C51.0749 41.9691 51.3906 41.6737 51.6267 41.3184L51.3952 41.0243V41.0056ZM49.5186 37.515C49.9752 37.515 50.2317 38.1406 50.2317 38.7223C50.2317 38.935 50.1691 38.9913 49.9502 38.9913L48.5615 39.0288C48.6365 38.1343 49.0682 37.515 49.5186 37.515ZM57.8008 37.2022H55.6865V37.5525C56.3121 37.6464 56.3621 37.7965 56.2057 38.2532C55.9555 39.0414 55.5801 40.1298 55.38 40.599C55.2611 40.2925 54.7544 39.0038 54.4854 38.1969C54.3165 37.7402 54.3541 37.6339 54.9046 37.5713V37.221H51.9832V37.5713C52.5587 37.6527 52.6964 37.7903 52.9278 38.3533C53.5158 39.7482 54.0475 41.0932 54.6105 42.5132H55.0985C55.8116 40.7303 56.3496 39.3354 56.7937 38.4033C57.0752 37.7777 57.2191 37.6777 57.8008 37.5713V37.221V37.2022Z" fill="#808285"/>
<path d="M62.5297 5.66818C62.317 5.94968 62.1169 6.24369 61.9042 6.54395C61.3753 7.40859 60.9551 8.33514 60.6531 9.30263C59.8921 11.2363 59.5386 13.3063 59.6147 15.383C55.2358 10.2222 45.9401 6.16238 38.0645 11.2106C63.7933 15.2766 74.9031 35.9949 69.1918 65.9525H69.3732C89.0906 48.6185 70.6243 30.0646 67.0274 23.7841C64.2687 18.9549 63.4305 13.5126 65.6137 9.66546C66.6083 8.07031 68.0471 6.38132 69.8362 5.67445C71.158 5.04648 72.6084 4.73639 74.0715 4.76897C75.5346 4.80156 76.9697 5.17591 78.2623 5.8621C79.4751 6.51027 80.5153 7.43896 81.2962 8.57075C82.9852 11.0729 82.5098 15.3767 81.4777 17.0344C80.4455 18.6922 80.677 18.1604 80.189 18.6296C78.9067 19.8244 76.3919 19.8807 75.2409 19.2551C74.5683 18.9951 74.0231 18.4836 73.7208 17.8289C73.6764 17.7496 73.6532 17.6602 73.6532 17.5693C73.6532 17.4784 73.6764 17.389 73.7208 17.3097C73.7674 17.2362 73.8297 17.1739 73.9033 17.1274C73.9768 17.0809 74.0598 17.0513 74.1462 17.0407C74.8553 17.0377 75.5513 16.849 76.1648 16.4934C76.7783 16.1378 77.2879 15.6277 77.643 15.0139C78.1008 14.1924 78.263 13.2386 78.1025 12.3119C77.9419 11.3853 77.4684 10.5417 76.761 9.92194C76.1641 9.4507 75.4628 9.12971 74.716 8.98602C73.9692 8.84232 73.1989 8.88011 72.4697 9.09621C66.5082 10.9353 67.1525 20.2623 72.7387 23.2649C74.0216 23.9793 75.4617 24.3641 76.9299 24.3847C78.2106 24.4368 79.4884 24.2274 80.6855 23.7692C81.8825 23.311 82.9737 22.6137 83.8923 21.7198C84.6216 21.0175 85.2528 20.22 85.7689 19.349C86.6049 17.9522 87.1814 16.4157 87.4704 14.8137C87.8171 15.0967 88.1899 15.346 88.5839 15.5582C91.7117 17.2409 96.4909 15.0139 97.5418 13.3249C97.8451 12.8923 98.0578 12.403 98.1673 11.8862C98.1928 11.7655 98.1792 11.6399 98.1286 11.5275C98.078 11.4151 97.993 11.3216 97.8858 11.2606C97.8071 11.2174 97.7199 11.1918 97.6303 11.1853C97.5407 11.1788 97.4508 11.1917 97.3666 11.2231C94.8579 12.1274 92.094 12.0083 89.6724 10.8915C88.4855 10.3702 87.4875 9.49667 86.8136 8.38933C86.188 7.54484 85.8252 6.51268 85.1934 5.70572C84.0031 4.10244 82.4711 2.78406 80.7082 1.84608C78.593 0.710147 76.2281 0.118932 73.8272 0.125817C71.6377 0.102692 69.4729 0.589806 67.5044 1.54856C65.5358 2.50731 63.8177 3.91134 62.486 5.64942" fill="#80C342"/>
<path d="M155.218 42.1254C154.736 39.2291 154.442 37.3962 154.205 35.7885C151.755 35.1331 149.234 34.7781 146.698 34.7314C138.998 34.7314 134.406 38.4847 134.406 42.9073C134.406 48.0931 140.43 50.3451 144.252 51.9528C148.731 53.7919 152.009 55.3996 152.009 58.7963C152.009 62.193 149.388 64.3074 144.847 64.3074C138.641 64.3074 135.957 59.6658 135.063 56.8633L133.268 57.1886C133.687 59.3906 134.462 63.344 134.881 64.3074C135.852 64.6998 136.849 65.0218 137.865 65.2707C139.783 65.7186 141.745 65.9494 143.714 65.9588C151.652 65.9588 156.963 62.0992 156.963 57.2824C156.963 52.0904 151.333 49.976 146.642 48.0931C141.95 46.2102 139.06 44.6526 139.06 41.2996C139.06 38.7974 141.087 36.2952 145.685 36.2952C150.877 36.2952 152.491 39.4668 153.504 42.3568L155.237 42.1316L155.218 42.1254Z" fill="#8D614C"/>
<path d="M115.908 36.1449V34.8062H104.604V36.1449C107.957 36.2826 109.058 36.9081 109.296 39.11C109.587 41.7455 109.699 44.3976 109.634 47.0483V58.8149H109.49L89.4723 34.8062H83.1668V36.2325C84.8808 36.4515 85.8129 36.8581 86.6949 37.909C87.5769 38.9599 87.6583 39.2477 87.6583 42.7445V53.2662C87.6583 57.6451 87.5144 59.9596 87.3642 61.4422C87.1265 63.788 85.8817 64.4073 83.1543 64.5699V65.9086H94.5018V64.5699C91.2489 64.3823 90.1229 63.8068 89.904 61.3671C89.6722 58.6796 89.5762 55.9822 89.6162 53.285V41.2619H89.7163L109.778 65.9211H111.586V47.0483C111.52 44.3509 111.616 41.652 111.873 38.9662C112.061 36.9081 113.212 36.2826 115.896 36.1449H115.908Z" fill="#8D614C"/>
<path d="M132.529 65.8898V64.5512C127.85 64.2634 127.393 64.0257 127.393 59.9096V40.7802C127.393 36.7142 127.85 36.4014 132.529 36.1449V34.8062H117.403V36.1449C122.082 36.4327 122.545 36.7142 122.545 40.7802V59.9096C122.545 63.9757 122.082 64.2884 117.403 64.5512V65.8898H132.529Z" fill="#8D614C"/>
</svg>
