<svg width="20" height="20" viewBox="0 0 20 20" fill="none" xmlns="http://www.w3.org/2000/svg">
<path d="M19.3747 14.152L15.4964 12.2129C15.3144 12.122 15.1083 12.0908 14.9075 12.1235C14.7067 12.1562 14.5213 12.2512 14.3775 12.3952L12.7535 14.0192C10.4198 13.644 6.7422 9.96739 6.36794 7.63364L7.99196 6.00962C8.1359 5.86583 8.23095 5.68041 8.26366 5.4796C8.29638 5.2788 8.26509 5.07279 8.17424 4.89075L6.23511 1.01249C6.17163 0.885366 6.08099 0.773748 5.96959 0.685536C5.8582 0.597324 5.72878 0.534675 5.59049 0.502022C5.4522 0.469369 5.30842 0.467511 5.16934 0.496579C5.03025 0.525647 4.89925 0.58493 4.78561 0.670234L0.907357 3.57893C0.786941 3.66924 0.689205 3.78635 0.621891 3.92098C0.554576 4.0556 0.519531 4.20406 0.519531 4.35458C0.519531 13.6333 6.75383 19.8676 16.0326 19.8676C16.1831 19.8676 16.3315 19.8326 16.4662 19.7652C16.6008 19.6979 16.7179 19.6002 16.8082 19.4798L19.7169 15.6015C19.8022 15.4879 19.8615 15.3569 19.8906 15.2178C19.9196 15.0787 19.9178 14.9349 19.8851 14.7966C19.8525 14.6584 19.7898 14.5289 19.7016 14.4175C19.6134 14.3061 19.5018 14.2155 19.3747 14.152Z" fill="#80C342"/>
<path d="M11.6698 2.41551C13.3406 2.41756 14.9424 3.0822 16.1238 4.26364C17.3052 5.44508 17.9699 7.04687 17.9719 8.71768C17.9719 8.97482 18.0741 9.22143 18.2559 9.40326C18.4377 9.58509 18.6843 9.68724 18.9415 9.68724C19.1986 9.68724 19.4452 9.58509 19.6271 9.40326C19.8089 9.22143 19.9111 8.97482 19.9111 8.71768C19.9085 6.53274 19.0394 4.43802 17.4944 2.89303C15.9494 1.34805 13.8547 0.478945 11.6698 0.476379C11.4126 0.476379 11.166 0.57853 10.9842 0.760358C10.8023 0.942187 10.7002 1.1888 10.7002 1.44594C10.7002 1.70309 10.8023 1.9497 10.9842 2.13153C11.166 2.31336 11.4126 2.41551 11.6698 2.41551Z" fill="#80C342"/>
<path d="M11.6698 6.29377C12.3126 6.29377 12.9292 6.54915 13.3837 7.00372C13.8383 7.45829 14.0937 8.07482 14.0937 8.71768C14.0937 8.97483 14.1958 9.22144 14.3776 9.40327C14.5595 9.5851 14.8061 9.68725 15.0632 9.68725C15.3204 9.68725 15.567 9.5851 15.7488 9.40327C15.9306 9.22144 16.0328 8.97483 16.0328 8.71768C16.0328 7.56053 15.5731 6.45078 14.7549 5.63255C13.9367 4.81432 12.8269 4.35464 11.6698 4.35464C11.4126 4.35464 11.166 4.4568 10.9842 4.63862C10.8023 4.82045 10.7002 5.06706 10.7002 5.32421C10.7002 5.58135 10.8023 5.82797 10.9842 6.00979C11.166 6.19162 11.4126 6.29377 11.6698 6.29377Z" fill="#80C342"/>
</svg>
